<svg viewBox="0 0 32 32" fill="none" xmlns="http://www.w3.org/2000/svg">
<circle cx="16.5" cy="15.5" r="14.5" fill="#FEFEFE"/>
<path fill-rule="evenodd" clip-rule="evenodd" d="M16.5 27C22.8513 27 28 21.8513 28 15.5C28 9.14873 22.8513 4 16.5 4C10.1487 4 5 9.14873 5 15.5C5 21.8513 10.1487 27 16.5 27ZM26.5 15.5C26.5 21.0228 22.0228 25.5 16.5 25.5C10.9772 25.5 6.5 21.0228 6.5 15.5C6.5 9.97715 10.9772 5.5 16.5 5.5C22.0228 5.5 26.5 9.97715 26.5 15.5ZM13.1354 11.872C13.1354 12.5783 12.5628 13.1509 11.8564 13.1509C11.15 13.1509 10.5774 12.5783 10.5774 11.872C10.5774 11.1656 11.15 10.593 11.8564 10.593C12.5628 10.593 13.1354 11.1656 13.1354 11.872ZM19.531 11.872C19.531 12.5783 18.9584 13.1509 18.252 13.1509C17.5456 13.1509 16.973 12.5783 16.973 11.872C16.973 11.1656 17.5456 10.593 18.252 10.593C18.9584 10.593 19.531 11.1656 19.531 11.872ZM18.8135 16.5342C19.0381 16.0248 18.8073 15.4297 18.2979 15.2052C17.7963 14.984 17.2118 15.2044 16.9795 15.6975C16.9795 15.6975 16.9474 15.7447 16.8589 15.8286C16.75 15.9318 16.5928 16.0537 16.3956 16.1699C15.9958 16.4054 15.5018 16.5769 14.9996 16.5769C14.0088 16.5769 13.2483 15.8964 12.8641 15.4608C12.4959 15.0433 11.8589 15.0032 11.4414 15.3714C11.0238 15.7396 10.9838 16.3766 11.352 16.7942C11.8247 17.3302 13.0989 18.593 14.9996 18.593C15.9433 18.593 16.7879 18.2787 17.4189 17.9069C17.7372 17.7194 18.0183 17.5074 18.2458 17.2918C18.4566 17.0919 18.6823 16.8318 18.8135 16.5342Z" fill="#FF4300"/>
</svg>
