<?xml version="1.0" encoding="UTF-8"?>
<svg fill="none" version="1.1" viewBox="0 0 33 33" xmlns="http://www.w3.org/2000/svg">
 <mask id="mask0_1416:38" x="0" y="0" width="34" height="34" maskUnits="userSpaceOnUse">
  <rect x="1" y="1" width="32" height="32" rx="3" fill="#fff" stroke="#dadbdd"/>
 </mask>
 <g transform="translate(-.5 -.5)" mask="url(#mask0_1416:38)">
  <rect x="1" y="1" width="32" height="32" rx="3" fill="#fff" stroke="#dadbdd"/>
 </g>
 <path d="m10.1107 17.0813c0.5143 1.4323 1.6735 2.5945 3.2158 3.0198l2.113 0.5827v1.49c0 0.4344-0.3422 0.7866-0.7644 0.7866h-3.0573v-1.1799c0-0.4344-0.3422-0.7866-0.7643-0.7866s-0.7643 0.3522-0.7643 0.7866v3.9329c0 0.4344 0.3422 0.7866 0.7643 0.7866s0.7643-0.3522 0.7643-0.7866v-1.1799h3.0573c1.2664 0 2.293-1.0564 2.293-2.3597v-1.0685l3.0587 0.8434c0.7136 0.1968 1.4619-0.1598 1.7777-0.8471l0.0184-0.04c1.776 0.3863 3.5553-0.7218 4.0307-2.5477 0.366-1.4059-0.1441-2.8393-1.1837-3.6892 0.2459-0.8339-0.2219-1.7399-1.0684-1.9733l-4.2615-1.1751c-0.1004 0.5232-0.2558 1.026-0.4595 1.502l4.3253 1.1927-2.7833 6.0582-6.7004-1.8476c-0.6752-0.1862-1.242-0.5811-1.6524-1.0992-0.6835-0.0378-1.3411-0.1762-1.959-0.4011zm12.3999 2.4833 1.4845-3.2313c0.3869 0.4753 0.5493 1.1305 0.3819 1.7734-0.2307 0.8862-1.0142 1.468-1.8664 1.4579z" clip-rule="evenodd" fill="#ff4300" fill-rule="evenodd"/>
 <circle cx="12.7134" cy="11.7134" r="6.2134099" fill="#ff4300" stroke="#fff" stroke-width="2"/>
 <g fill="#fefefe">
  <path d="m10.8677 10.5009c0 0.2901-0.2352 0.5253-0.5253 0.5253s-0.5253-0.2352-0.5253-0.5253 0.2352-0.5253 0.5253-0.5253 0.5253 0.2352 0.5253 0.5253z"/>
  <path d="m13.4944 10.5009c0 0.2901-0.2352 0.5253-0.5253 0.5253s-0.5253-0.2352-0.5253-0.5253 0.2352-0.5253 0.5253-0.5253 0.5253 0.2352 0.5253 0.5253z"/>
  <path d="m12.9879 11.8699c0.2093 0.0922 0.3041 0.3366 0.2118 0.5458-0.0539 0.1223-0.1465 0.2291-0.2331 0.3112-0.0935 0.0885-0.2089 0.1756-0.3396 0.2526-0.2592 0.1527-0.6061 0.2818-0.9937 0.2818-0.7806 0-1.304-0.5187-1.4981-0.7388-0.1512-0.1715-0.1348-0.4331 0.0367-0.5843 0.1715-0.1513 0.4331-0.1348 0.5844 0.0367 0.1577 0.1789 0.4701 0.4584 0.877 0.4584 0.2063 0 0.4092-0.0705 0.5734-0.1672 0.0809-0.0477 0.1455-0.0978 0.1902-0.1402 0.0364-0.0345 0.0496-0.0538 0.0496-0.0538 0.0954-0.2025 0.3355-0.2931 0.5414-0.2022z" clip-rule="evenodd" fill-rule="evenodd"/>
 </g>
</svg>
